# xmcd
#
# Track frame offsets:
#	300
#	17923
#	23156
#	44951
#	63849
#	82336
#	108293
#	127002
#	142360
#	160015
#	174964
#	201426
#	222274
#	250689
#
# Disc length: 3660 seconds
#
# Revision: 1
# Processed by: cddbd v1.5.1PL2 Copyright (c) Steve Scherf et al.
# Submitted via: audiograbber 1.81.02
#
DISCID=d30e480e
DTITLE=Smokie Norful - nothing without you (www.gerth.de)
DYEAR=2005
DGENRE=Gospel
TTITLE0=Power
TTITLE1=Power - Reprise
TTITLE2=Worthy
TTITLE3=God is able
TTITLE4=I understand
TTITLE5=I know the Lord will make a way
TTITLE6=In the middle
TTITLE7=Cant nobody
TTITLE8=Nothing without you
TTITLE9=Continuous Grace
TTITLE10=I know too much about him
TTITLE11=Healing in his tears
TTITLE12=BONUS: Working it out
TTITLE13=BONUS: He knows
EXTD=www.gerth.de
EXTT0=
EXTT1=
EXTT2=
EXTT3=
EXTT4=
EXTT5=
EXTT6=
EXTT7=
EXTT8=
EXTT9=
EXTT10=
EXTT11=
EXTT12=
EXTT13=
PLAYORDER=
